<mxfile host="app.diagrams.net" agent="Mozilla/5.0 (Windows NT 10.0; Win64; x64) AppleWebKit/537.36 (KHTML, like Gecko) Chrome/140.0.0.0 Safari/537.36" version="28.2.5">
  <diagram id="EaoQ9SLUbCgHEx7tcpGb" name="Page-1">
    <mxGraphModel dx="1486" dy="767" grid="1" gridSize="10" guides="1" tooltips="1" connect="1" arrows="1" fold="1" page="1" pageScale="1" pageWidth="420" pageHeight="680" math="0" shadow="0">
      <root>
        <mxCell id="0" />
        <mxCell id="1" parent="0" />
        <mxCell id="UQ5WdaoirHtC-JDy78-c-4" style="edgeStyle=orthogonalEdgeStyle;rounded=0;orthogonalLoop=1;jettySize=auto;html=1;entryX=1.003;entryY=0.485;entryDx=0;entryDy=0;entryPerimeter=0;textShadow=1;labelBorderColor=none;fontStyle=0;fontSize=13;strokeColor=#000000;exitX=1;exitY=0.5;exitDx=0;exitDy=0;" edge="1" parent="1" source="UQ5WdaoirHtC-JDy78-c-28" target="UQ5WdaoirHtC-JDy78-c-22">
          <mxGeometry relative="1" as="geometry">
            <mxPoint x="354.99999999999994" y="508.75" as="targetPoint" />
            <mxPoint x="330" y="138" as="sourcePoint" />
            <Array as="points">
              <mxPoint x="510" y="138" />
              <mxPoint x="510" y="517" />
              <mxPoint x="361" y="517" />
            </Array>
          </mxGeometry>
        </mxCell>
        <mxCell id="UQ5WdaoirHtC-JDy78-c-5" value="&lt;font&gt;Test Data&lt;/font&gt;&lt;div&gt;&lt;font&gt;(20%)&lt;/font&gt;&lt;/div&gt;" style="shape=parallelogram;html=1;strokeWidth=1;perimeter=parallelogramPerimeter;whiteSpace=wrap;rounded=1;arcSize=12;size=0.11538461538461539;fillColor=none;shadow=1;fontStyle=0;labelBorderColor=none;textShadow=1;fontSize=13;strokeColor=none;" vertex="1" parent="1">
          <mxGeometry x="400" y="95.5" width="91" height="49.5" as="geometry" />
        </mxCell>
        <mxCell id="UQ5WdaoirHtC-JDy78-c-6" value="" style="edgeStyle=orthogonalEdgeStyle;rounded=0;orthogonalLoop=1;jettySize=auto;html=1;fontStyle=0;fontSize=13;strokeColor=#000000;" edge="1" parent="1" source="UQ5WdaoirHtC-JDy78-c-7" target="UQ5WdaoirHtC-JDy78-c-25">
          <mxGeometry relative="1" as="geometry" />
        </mxCell>
        <mxCell id="UQ5WdaoirHtC-JDy78-c-7" value="&lt;div&gt;&lt;strong style=&quot;font-family: Arial, sans-serif;&quot;&gt;Feature Selection Methods&amp;nbsp;&lt;/strong&gt;&lt;/div&gt;&lt;div&gt;&lt;span style=&quot;font-family: Arial, sans-serif;&quot;&gt;(PSO, GA, etc.)&lt;/span&gt;&lt;/div&gt;" style="rounded=1;whiteSpace=wrap;html=1;arcSize=6;glass=0;align=center;shadow=1;strokeWidth=1;textShadow=0;fontSize=13;fontStyle=0;fillColor=#cce5ff;strokeColor=#36393d;" vertex="1" parent="1">
          <mxGeometry x="200" y="261" width="140" height="60" as="geometry" />
        </mxCell>
        <mxCell id="UQ5WdaoirHtC-JDy78-c-10" value="" style="edgeStyle=orthogonalEdgeStyle;rounded=0;orthogonalLoop=1;jettySize=auto;html=1;fontStyle=0;fontSize=13;strokeColor=#000000;entryX=0.5;entryY=0;entryDx=0;entryDy=0;exitX=0.498;exitY=1.006;exitDx=0;exitDy=0;exitPerimeter=0;" edge="1" parent="1" target="UQ5WdaoirHtC-JDy78-c-18" source="UQ5WdaoirHtC-JDy78-c-11">
          <mxGeometry relative="1" as="geometry">
            <mxPoint x="90.00000000000023" y="312.9999999999999" as="sourcePoint" />
          </mxGeometry>
        </mxCell>
        <mxCell id="UQ5WdaoirHtC-JDy78-c-11" value="&lt;div&gt;&lt;strong style=&quot;font-family: Arial, sans-serif;&quot;&gt;Resampling Methods&lt;/strong&gt;&lt;/div&gt;&lt;div&gt;&lt;span style=&quot;font-family: Arial, sans-serif;&quot;&gt;(SMOTE, ADASYN, etc.)&lt;/span&gt;&lt;/div&gt;" style="rounded=1;whiteSpace=wrap;html=1;arcSize=6;glass=0;align=center;shadow=1;strokeWidth=1;textShadow=0;fontSize=13;fontStyle=0;fillColor=#cce5ff;strokeColor=#36393d;" vertex="1" parent="1">
          <mxGeometry x="37" y="260" width="140" height="60" as="geometry" />
        </mxCell>
        <mxCell id="UQ5WdaoirHtC-JDy78-c-13" style="edgeStyle=orthogonalEdgeStyle;rounded=0;orthogonalLoop=1;jettySize=auto;html=1;fontStyle=0;fontSize=13;strokeColor=#000000;entryX=0.533;entryY=0.034;entryDx=0;entryDy=0;entryPerimeter=0;" edge="1" parent="1">
          <mxGeometry relative="1" as="geometry">
            <mxPoint x="270" y="240" as="sourcePoint" />
            <Array as="points">
              <mxPoint x="430" y="239.3" />
              <mxPoint x="430" y="339.3" />
              <mxPoint x="430" y="339.3" />
            </Array>
            <mxPoint x="430.11999999999995" y="343" as="targetPoint" />
          </mxGeometry>
        </mxCell>
        <mxCell id="UQ5WdaoirHtC-JDy78-c-14" style="edgeStyle=orthogonalEdgeStyle;rounded=0;orthogonalLoop=1;jettySize=auto;html=1;fontStyle=0;fontSize=13;strokeColor=#000000;" edge="1" parent="1">
          <mxGeometry relative="1" as="geometry">
            <mxPoint x="270" y="240" as="sourcePoint" />
            <mxPoint x="100" y="260" as="targetPoint" />
            <Array as="points">
              <mxPoint x="100" y="240" />
            </Array>
          </mxGeometry>
        </mxCell>
        <mxCell id="UQ5WdaoirHtC-JDy78-c-15" style="edgeStyle=orthogonalEdgeStyle;rounded=0;orthogonalLoop=1;jettySize=auto;html=1;entryX=1.001;entryY=0.543;entryDx=0;entryDy=0;entryPerimeter=0;" edge="1" parent="1" target="UQ5WdaoirHtC-JDy78-c-20">
          <mxGeometry relative="1" as="geometry">
            <mxPoint x="355.5" y="449.0999999999999" as="targetPoint" />
            <mxPoint x="425.82" y="360" as="sourcePoint" />
            <Array as="points">
              <mxPoint x="426" y="449" />
              <mxPoint x="371" y="449" />
            </Array>
          </mxGeometry>
        </mxCell>
        <mxCell id="UQ5WdaoirHtC-JDy78-c-16" value="&amp;nbsp;Original Imbalanced Training Set" style="shape=parallelogram;html=1;strokeWidth=1;perimeter=parallelogramPerimeter;whiteSpace=wrap;rounded=1;arcSize=12;size=0.11538461538461539;fillColor=#D5E8D4;shadow=1;perimeterSpacing=0;fontStyle=1;labelBorderColor=none;textShadow=1;fontSize=12;strokeColor=#000000;" vertex="1" parent="1">
          <mxGeometry x="355.5" y="342" width="140" height="50" as="geometry" />
        </mxCell>
        <mxCell id="UQ5WdaoirHtC-JDy78-c-17" value="" style="edgeStyle=orthogonalEdgeStyle;rounded=0;orthogonalLoop=1;jettySize=auto;html=1;entryX=0.015;entryY=0.616;entryDx=0;entryDy=0;entryPerimeter=0;exitX=0.445;exitY=1.011;exitDx=0;exitDy=0;exitPerimeter=0;" edge="1" parent="1" target="UQ5WdaoirHtC-JDy78-c-20" source="UQ5WdaoirHtC-JDy78-c-18">
          <mxGeometry relative="1" as="geometry">
            <mxPoint x="89.1" y="392" as="sourcePoint" />
            <mxPoint x="174.99999999999997" y="453.6" as="targetPoint" />
            <Array as="points">
              <mxPoint x="99" y="453" />
            </Array>
          </mxGeometry>
        </mxCell>
        <mxCell id="UQ5WdaoirHtC-JDy78-c-18" value="Balanced&amp;nbsp;&lt;div&gt;Training&amp;nbsp;&lt;span style=&quot;background-color: transparent; color: light-dark(rgb(0, 0, 0), rgb(255, 255, 255));&quot;&gt;Set&lt;/span&gt;&lt;/div&gt;" style="shape=parallelogram;html=1;strokeWidth=1;perimeter=parallelogramPerimeter;whiteSpace=wrap;rounded=1;arcSize=12;size=0.11538461538461539;fillColor=#D5E8D4;shadow=1;fontStyle=1;labelBorderColor=none;textShadow=1;fontSize=12;strokeColor=#000000;" vertex="1" parent="1">
          <mxGeometry x="37" y="342" width="140" height="50" as="geometry" />
        </mxCell>
        <mxCell id="UQ5WdaoirHtC-JDy78-c-19" value="" style="edgeStyle=orthogonalEdgeStyle;rounded=0;orthogonalLoop=1;jettySize=auto;html=1;fontStyle=0;fontSize=13;strokeColor=#000000;" edge="1" parent="1" source="UQ5WdaoirHtC-JDy78-c-20" target="UQ5WdaoirHtC-JDy78-c-22">
          <mxGeometry relative="1" as="geometry" />
        </mxCell>
        <mxCell id="UQ5WdaoirHtC-JDy78-c-20" value="&lt;strong style=&quot;font-family: Arial, sans-serif;&quot;&gt;Model Training&lt;/strong&gt;" style="rounded=1;whiteSpace=wrap;html=1;arcSize=6;fillColor=#cce5ff;glass=0;align=center;shadow=1;strokeWidth=1;textShadow=0;strokeColor=#36393d;fontSize=13;fontStyle=0;" vertex="1" parent="1">
          <mxGeometry x="180" y="422" width="180" height="50" as="geometry" />
        </mxCell>
        <mxCell id="UQ5WdaoirHtC-JDy78-c-21" value="" style="edgeStyle=orthogonalEdgeStyle;rounded=0;orthogonalLoop=1;jettySize=auto;html=1;fontStyle=0;fontSize=13;strokeColor=#000000;" edge="1" parent="1" source="UQ5WdaoirHtC-JDy78-c-22">
          <mxGeometry relative="1" as="geometry">
            <mxPoint x="265.0000000000002" y="561" as="targetPoint" />
          </mxGeometry>
        </mxCell>
        <mxCell id="UQ5WdaoirHtC-JDy78-c-22" value="&lt;div&gt;&lt;font&gt;&lt;strong style=&quot;font-family: Arial, sans-serif;&quot;&gt;Model Evaluation&lt;/strong&gt;&lt;/font&gt;&lt;/div&gt;" style="rounded=1;whiteSpace=wrap;html=1;arcSize=6;fillColor=#cce5ff;glass=0;align=center;noLabel=0;shadow=1;strokeWidth=1;textShadow=0;fontSize=13;fontStyle=0;strokeColor=#36393d;" vertex="1" parent="1">
          <mxGeometry x="180" y="492" width="180" height="50" as="geometry" />
        </mxCell>
        <mxCell id="UQ5WdaoirHtC-JDy78-c-23" value="&lt;strong style=&quot;font-family: Arial, sans-serif;&quot;&gt;&lt;font&gt;Results &amp;amp; Analysis&lt;/font&gt;&lt;/strong&gt;" style="rounded=1;html=1;fillColor=#cdeb8b;shadow=0;labelBorderColor=none;textShadow=0;whiteSpace=wrap;strokeWidth=1;arcSize=50;fontSize=13;fontStyle=0;strokeColor=#4D4D4D;" vertex="1" parent="1">
          <mxGeometry x="185" y="560" width="170" height="60" as="geometry" />
        </mxCell>
        <mxCell id="UQ5WdaoirHtC-JDy78-c-24" value="" style="edgeStyle=orthogonalEdgeStyle;rounded=0;orthogonalLoop=1;jettySize=auto;html=1;fontStyle=0;fontSize=13;strokeColor=#000000;" edge="1" parent="1">
          <mxGeometry relative="1" as="geometry">
            <mxPoint x="265" y="369.99" as="sourcePoint" />
            <mxPoint x="265" y="421.99" as="targetPoint" />
            <Array as="points">
              <mxPoint x="265" y="421.99" />
              <mxPoint x="265" y="421.99" />
            </Array>
          </mxGeometry>
        </mxCell>
        <mxCell id="UQ5WdaoirHtC-JDy78-c-25" value="Reduced-Feature Training Set" style="shape=parallelogram;html=1;strokeWidth=1;perimeter=parallelogramPerimeter;whiteSpace=wrap;rounded=1;arcSize=12;size=0.11538461538461539;fillColor=#D5E8D4;shadow=1;perimeterSpacing=0;fontStyle=1;labelBorderColor=none;textShadow=1;fontSize=12;strokeColor=#000000;" vertex="1" parent="1">
          <mxGeometry x="200" y="342" width="140" height="50" as="geometry" />
        </mxCell>
        <mxCell id="UQ5WdaoirHtC-JDy78-c-30" value="" style="edgeStyle=orthogonalEdgeStyle;rounded=0;orthogonalLoop=1;jettySize=auto;html=1;" edge="1" parent="1" source="UQ5WdaoirHtC-JDy78-c-26" target="UQ5WdaoirHtC-JDy78-c-28">
          <mxGeometry relative="1" as="geometry" />
        </mxCell>
        <mxCell id="UQ5WdaoirHtC-JDy78-c-26" value="&#xa;CICIoT2023 Dataset" style="strokeWidth=1.5;shape=mxgraph.flowchart.database;whiteSpace=wrap;fillColor=#e1d5e7;strokeColor=#000000;fontSize=14;fontStyle=1;labelBorderColor=none;labelBackgroundColor=none;fontColor=default;" vertex="1" parent="1">
          <mxGeometry x="210" y="1" width="120" height="69" as="geometry" />
        </mxCell>
        <mxCell id="UQ5WdaoirHtC-JDy78-c-27" value="&lt;font&gt;Training Data (80&lt;span style=&quot;background-color: transparent; color: light-dark(rgb(0, 0, 0), rgb(255, 255, 255));&quot;&gt;%)&lt;/span&gt;&lt;/font&gt;" style="shape=parallelogram;html=1;strokeWidth=1;perimeter=parallelogramPerimeter;whiteSpace=wrap;rounded=1;arcSize=7;size=0.07875;shadow=0;fontStyle=0;labelBorderColor=none;textShadow=1;fontSize=13;strokeColor=none;fillColor=none;" vertex="1" parent="1">
          <mxGeometry x="290" y="190" width="100.5" height="34" as="geometry" />
        </mxCell>
        <mxCell id="UQ5WdaoirHtC-JDy78-c-29" style="edgeStyle=orthogonalEdgeStyle;rounded=0;orthogonalLoop=1;jettySize=auto;html=1;entryX=0.499;entryY=-0.011;entryDx=0;entryDy=0;entryPerimeter=0;" edge="1" parent="1" source="UQ5WdaoirHtC-JDy78-c-28" target="UQ5WdaoirHtC-JDy78-c-7">
          <mxGeometry relative="1" as="geometry">
            <mxPoint x="270" y="260" as="targetPoint" />
          </mxGeometry>
        </mxCell>
        <mxCell id="UQ5WdaoirHtC-JDy78-c-28" value="&lt;font&gt;&lt;b&gt;Data&lt;/b&gt;&lt;/font&gt;&lt;div&gt;&lt;font&gt;&lt;b&gt;Preprocessing&lt;/b&gt;&lt;/font&gt;&lt;/div&gt;" style="rhombus;whiteSpace=wrap;html=1;fillColor=#d5e8d4;strokeColor=#000000;gradientColor=none;fillStyle=auto;shadow=1;strokeWidth=1;" vertex="1" parent="1">
          <mxGeometry x="205.25" y="95.5" width="129.5" height="85.5" as="geometry" />
        </mxCell>
      </root>
    </mxGraphModel>
  </diagram>
</mxfile>
